# xmcd
#
# Track frame offsets: 
#        150
#        12037
#        29851
#        45496
#        58231
#        71868
#        88093
#        103397
#        116624
#        141044
#        153327
#        163302
#        176239
#        192632
#        210067
#        225159
#        238933
#        250293
#        260082
#        267247
#        277870
#
# Disc length: 3849 seconds
#
# Revision: 0
# Processed by: cddbd v1.5.2PL0 Copyright (c) Steve Scherf et al.
# Submitted via: ExactAudioCopyFreeDBPlugin 1.0
#
DISCID=390f0715
DTITLE=Herr Klontig and Rademann - Gravedigger Tales
DYEAR=2008
DGENRE=Country
TTITLE0=It
TTITLE1=Hurt
TTITLE2=Guns To Town
TTITLE3=Delia
TTITLE4=Give My Love
TTITLE5=Carrickfergus
TTITLE6=Recollection
TTITLE7=Flowers
TTITLE8=Me
TTITLE9=Thirteen
TTITLE10=Prison
TTITLE11=Psycho
TTITLE12=M So Lonesome
TTITLE13=Hayes
TTITLE14=Man
TTITLE15=Lonestar
TTITLE16=I Got Stripes
TTITLE17=Tear In My Beer
TTITLE18=I Want You Back Again
TTITLE19=Verliebt
TTITLE20=Stranger
EXTD=
EXTT0=
EXTT1=
EXTT2=
EXTT3=
EXTT4=
EXTT5=
EXTT6=
EXTT7=
EXTT8=
EXTT9=
EXTT10=
EXTT11=
EXTT12=
EXTT13=
EXTT14=
EXTT15=
EXTT16=
EXTT17=
EXTT18=
EXTT19=
EXTT20=
PLAYORDER=
